<svg xmlns="http://www.w3.org/2000/svg" viewBox="0 0 128.6 217.25"><defs><style>.cls-1{fill:#e21a1a;}</style></defs><title>Asset 1</title><g id="Layer_2" data-name="Layer 2"><g id="Layer_1-2" data-name="Layer 1"><path class="cls-1" d="M101.51,124.72,85.22,107.79l.19-15.15s6.16-1.24,7.48-10.24c0,0-.75-6.91-4.26-8.05L41,73.88s-5.31,2.18-5.31,7.77c0,0,.48,9.66,6.82,10.51l.1,15.35-23.4,26.72s-2,5.21-1.61,9.09l0,64.89s3.08,10,12.74,9H98s10.1.51,13.64-12.12V152S110.61,128.76,101.51,124.72Zm-9.94,53.87H76.88v14.78s-.28,2.94-2.84,2.37l-17.53.07s-3.22-1-3.41-2.72,0-13.08,0-13.08H51.49l-13.64-.56s-2.46-.48-2.46-4.17V158.41s-.19-2.55,3.31-3.6H52.44V141.74s.09-3.31,3.13-3.79H74.32a4.1,4.1,0,0,1,3.32,3.89v13.45H91.19s2.37-.1,2.46,2.84V176S94.5,176.51,91.57,178.59Z"/><path class="cls-1" d="M55.6,45.55S48.36,24.62,35.47,24.14c0,0-6.28-.49-23.35-4.84,0,0-10.47-3.7-12.08-6.6,0,0-1,20,6.28,29.47,0,0,6.93,13.85,30.6,14.17,0,0,13.85.65,16.91,3.87a8.27,8.27,0,0,1,3.22,7.89H64.3a39,39,0,0,0-14-24.16,57.43,57.43,0,0,0-22.06-6s-13-4.83-15.22-9.66c0,0,8,4.11,11.67,3.87,0,0,13.37,1.69,16.51,4.43A46.67,46.67,0,0,1,55.6,45.55Z"/><path class="cls-1" d="M73,45.55s7.24-20.93,20.13-21.41c0,0,6.28-.49,23.35-4.84,0,0,10.47-3.7,12.08-6.6,0,0,1,20-6.28,29.47,0,0-6.93,13.85-30.6,14.17,0,0-13.85.65-16.91,3.87a8.27,8.27,0,0,0-3.22,7.89H64.3a39,39,0,0,1,14-24.16,57.43,57.43,0,0,1,22.06-6s13-4.83,15.22-9.66c0,0-8,4.11-11.67,3.87,0,0-13.37,1.69-16.51,4.43A46.67,46.67,0,0,0,73,45.55Z"/><circle class="cls-1" cx="25.8" cy="6.35" r="6.35"/><circle class="cls-1" cx="87.41" cy="16.57" r="6.35"/><circle class="cls-1" cx="58.22" cy="29.67" r="3.18"/><circle class="cls-1" cx="64.45" cy="38.94" r="1.72"/><circle class="cls-1" cx="63.16" cy="51.46" r="1.3"/></g></g></svg>